<svg xmlns="http://www.w3.org/2000/svg" viewBox="0 0 200 48" fill="none">
  <!-- Icon -->
  <rect width="42" height="42" y="3" rx="9" fill="#1D4F91"/>
  <!-- Left speech bubble -->
  <path d="M8 14C8 12.34 9.34 11 11 11h5c1.66 0 3 1.34 3 3v5c0 1.66-1.34 3-3 3h-2l-3 3V22h-1c-1.66 0-3-1.34-3-3V14z" fill="white" opacity="0.95"/>
  <!-- Right speech bubble -->
  <path d="M21 18c0-1.66 1.34-3 3-3h5c1.66 0 3 1.34 3 3v5c0 1.66-1.34 3-3 3h-1v3l-3-3h-1c-1.66 0-3-1.34-3-3V18z" fill="white" opacity="0.65"/>
  <!-- Text -->
  <text x="52" y="21" font-family="system-ui, -apple-system, sans-serif" font-size="15" font-weight="700" fill="#1D4F91">Project 803</text>
  <text x="52" y="36" font-family="system-ui, -apple-system, sans-serif" font-size="11" font-weight="400" fill="#6B7280">AI-Moderated Debates</text>
</svg>
